<svg xmlns="http://www.w3.org/2000/svg" width="24" height="24" viewBox="0 0 24 24"><path d="M7 4v16h5.55c1.686 0 3.014-.41 3.983-1.23.98-.813 1.467-1.95 1.467-3.41 0-1.034-.208-1.858-.623-2.474-.424-.624-1.104-1.047-2.04-1.268v-.11c.69-.124 1.245-.493 1.66-1.11.416-.614.624-1.398.624-2.35 0-1.412-.47-2.437-1.43-3.077-.93-.64-2.46-.97-4.57-.97H7zm3.14 6.338V6.782h1.663c.888 0 1.544.13 1.968.394.42.27.63.71.63 1.317 0 .657-.19 1.128-.57 1.416s-.998.43-1.846.43h-1.84v-.01zm0 2.695h1.957c1.76 0 2.64.66 2.64 1.982 0 .746-.207 1.296-.623 1.648-.407.354-1.047.53-1.92.53h-2.052v-4.16z"/></svg>