<svg xmlns="http://www.w3.org/2000/svg" width="24" height="24" viewBox="0 0 24 24"><path d="M13.553 18.854V20h-4.33c.048-.434.19-.845.423-1.232.234-.39.697-.903 1.39-1.545.556-.52.897-.87 1.023-1.055.17-.255.25-.507.25-.756 0-.275-.08-.487-.22-.635-.15-.148-.36-.223-.62-.223s-.463.078-.615.233-.24.413-.264.773l-1.23-.123c.074-.68.304-1.167.69-1.464.388-.295.87-.443 1.45-.443.637 0 1.136.172 1.5.514.363.344.545.77.545 1.28 0 .29-.05.565-.154.827-.103.27-.27.54-.493.83-.15.19-.42.47-.81.82s-.636.6-.74.71c-.103.12-.187.238-.25.35h2.45z"/></svg>