<svg xmlns="http://www.w3.org/2000/svg" width="24" height="24" viewBox="0 0 24 24"><path d="M9.338 18.29l1.195-.145c.038.305.14.538.308.698.17.162.37.242.61.242.26 0 .47-.097.65-.29.175-.193.26-.454.26-.782 0-.31-.082-.557-.25-.738s-.37-.272-.61-.272c-.16 0-.35.03-.57.093l.138-1.007c.334 0 .59-.07.765-.22.177-.16.265-.36.265-.62 0-.218-.064-.39-.193-.52s-.3-.193-.514-.193c-.21 0-.39.072-.54.22s-.24.36-.272.642l-1.14-.195c.08-.39.2-.7.36-.936.158-.23.38-.417.667-.55.28-.134.6-.2.96-.2.602 0 1.09.193 1.46.58.3.316.45.674.45 1.072 0 .563-.31 1.015-.93 1.352.37.08.666.255.89.53.22.275.33.61.33 1 0 .563-.207 1.045-.62 1.443s-.927.6-1.542.6c-.584 0-1.067-.168-1.45-.504-.385-.337-.608-.776-.67-1.317z"/></svg>