<svg xmlns="http://www.w3.org/2000/svg" width="24" height="24" viewBox="0 0 24 24"><path d="M10.5 10.69c-1.37-.308-2.867.072-3.935 1.14l-1.323 1.324c-1.657 1.656-1.655 4.342-.004 5.992 1.654 1.654 4.338 1.653 5.994-.004l1.323-1.322c1.068-1.068 1.447-2.563 1.14-3.935l-3.677 3.677c-.875.875-2.31.88-3.193-.002-.89-.89-.883-2.31 0-3.193L10.5 10.69zm3.386 3.005c1.372.31 2.866-.07 3.935-1.14l1.33-1.323c1.655-1.656 1.655-4.342 0-5.992-1.65-1.656-4.333-1.654-5.99 0L11.84 6.564c-1.067 1.067-1.446 2.564-1.14 3.934L14.37 6.82c.875-.874 2.31-.88 3.194 0 .89.89.883 2.314 0 3.195l-3.677 3.678zm.26-3.454c-.442-.44-1.16-.43-1.6.01l-2.304 2.306c-.44.443-.445 1.155 0 1.6.44.44 1.158.437 1.597-.002l2.3-2.304c.44-.44.44-1.155 0-1.6z"/></svg>