<svg xmlns="http://www.w3.org/2000/svg" width="24" height="24" viewBox="0 0 24 24"><path d="M9 5h11v2H9V5zm0 6h11v2H9v-2zm0 6h11v2H9v-2zm-4.5 2.305l1.024-.11c.033.23.12.41.264.53s.316.185.52.185c.218 0 .402-.073.552-.22.15-.147.224-.346.224-.596 0-.235-.072-.422-.215-.56s-.32-.208-.53-.208c-.14 0-.3.023-.49.07l.117-.766c.286.008.504-.048.655-.165.15-.115.226-.272.226-.465 0-.164-.055-.296-.166-.395-.11-.098-.256-.146-.44-.146-.18 0-.334.05-.462.16s-.208.27-.235.484l-.977-.146c.068-.297.17-.533.307-.71.14-.177.33-.315.573-.417.245-.102.52-.152.823-.152.52 0 .94.148 1.25.44.26.24.39.515.39.817 0 .43-.265.77-.795 1.03.318.06.57.192.76.4.19.21.285.463.285.76 0 .43-.177.796-.53 1.1-.355.302-.796.453-1.323.453-.5 0-.915-.128-1.244-.384-.328-.25-.52-.585-.57-1zm3.168-5.61v.84H4.5c.034-.317.137-.618.31-.902.17-.284.51-.66 1.016-1.13.408-.38.658-.638.75-.773.125-.187.187-.37.187-.553 0-.202-.054-.356-.163-.465s-.26-.162-.45-.162-.34.057-.45.17c-.112.113-.177.302-.194.566l-.9-.09c.053-.498.22-.855.504-1.07.285-.218.638-.326 1.063-.326.465 0 .83.125 1.097.376.266.25.4.563.4.936 0 .212-.04.415-.115.606-.076.192-.197.393-.362.604-.11.14-.307.34-.592.602s-.46.436-.54.52c-.07.086-.14.17-.18.25h1.79zM6.7 8.3h-.916V4.847c-.335.313-.73.544-1.184.695V4.71c.24-.08.5-.227.78-.445.28-.22.472-.473.577-.765H6.7v4.8z"/></svg>