<svg xmlns="http://www.w3.org/2000/svg" width="24" height="24" viewBox="0 0 24 24"><path d="M5.75 7.7c-.482 0-.895-.17-1.237-.514S4 6.432 4 5.95s.17-.895.513-1.237S5.268 4.2 5.75 4.2s.895.17 1.237.513.513.755.513 1.237c0 .482-.17.894-.513 1.236S6.232 7.7 5.75 7.7zM9 5h11v2H9V5zm-3.25 8.7c-.482 0-.895-.17-1.237-.514S4 12.432 4 11.95s.17-.895.513-1.237.755-.513 1.237-.513.895.17 1.237.513.513.755.513 1.237c0 .482-.17.894-.513 1.236s-.755.514-1.237.514zM9 11h11v2H9v-2zm-3.25 8.7c-.482 0-.895-.17-1.237-.514S4 18.432 4 17.95s.17-.895.513-1.237c.342-.342.755-.513 1.237-.513s.895.17 1.237.513c.342.343.513.755.513 1.237 0 .48-.17.894-.513 1.236s-.755.514-1.237.514zM9 17h11v2H9v-2z"/></svg>